<?xml version="1.0"?>
<svg version="1.1" xmlns="http://www.w3.org/2000/svg" width="400px" height="200px" style=""><path fill="#258fdb" d="M53.78515625,96.80078125l0,12.93359375q0,2.21484375-0.9912109375,3.8828125t-2.8642578125,2.556640625t-4.4296875,0.888671875q-3.85546875,0-5.98828125-1.9755859375t-2.1328125-5.4072265625l0-12.87890625l4.224609375,0l0,12.236328125q0,2.310546875,0.9296875,3.390625t3.076171875,1.080078125q2.078125,0,3.0146484375-1.0869140625t0.9365234375-3.4111328125l0-12.208984375l4.224609375,0z M74.38552734375,116.7890625l-4.169921875,0l0-8.927734375q0-1.654296875-0.587890625-2.4814453125t-1.873046875-0.8271484375q-1.75,0-2.529296875,1.1689453125t-0.779296875,3.8759765625l0,7.19140625l-4.169921875,0l0-15.28515625l3.185546875,0l0.560546875,1.955078125l0.232421875,0q0.697265625-1.107421875,1.9208984375-1.6748046875t2.7822265625-0.5673828125q2.666015625,0,4.046875,1.4423828125t1.380859375,4.1630859375l0,9.966796875z M80.4253515625,97.552734375q0-2.037109375,2.26953125-2.037109375t2.26953125,2.037109375q0,0.970703125-0.5673828125,1.5107421875t-1.7021484375,0.5400390625q-2.26953125,0-2.26953125-2.05078125z M84.7730078125,116.7890625l-4.169921875,0l0-15.28515625l4.169921875,0l0,15.28515625z M97.40267578125,113.794921875q1.5859375,0,2.32421875-0.9091796875t0.806640625-3.1787109375l0-0.505859375q0-2.4609375-0.7587890625-3.52734375t-2.4404296875-1.06640625q-2.939453125,0-2.939453125,4.62109375q0,2.296875,0.7314453125,3.431640625t2.2763671875,1.134765625z M95.91244140625,117.0625q-2.70703125,0-4.23828125-2.0849609375t-1.53125-5.8037109375q0-3.74609375,1.5654296875-5.8515625t4.2861328125-2.10546875q1.44921875,0,2.529296875,0.546875t1.900390625,1.6953125l0.109375,0l0.369140625-1.955078125l3.52734375,0l0,22.01171875l-4.18359375,0l0-6.412109375q0-0.833984375,0.177734375-2.296875l-0.177734375,0q-0.669921875,1.107421875-1.77734375,1.681640625t-2.556640625,0.57421875z M121.5440625,116.7890625l-0.560546875-1.955078125l-0.21875,0q-0.669921875,1.06640625-1.900390625,1.6474609375t-2.802734375,0.5810546875q-2.693359375,0-4.060546875-1.4423828125t-1.3671875-4.1494140625l0-9.966796875l4.169921875,0l0,8.927734375q0,1.654296875,0.587890625,2.4814453125t1.873046875,0.8271484375q1.75,0,2.529296875-1.1689453125t0.779296875-3.8759765625l0-7.19140625l4.169921875,0l0,15.28515625l-3.19921875,0z M137.37294921875,104.18359375q-1.326171875,0-2.078125,0.8408203125t-0.861328125,2.3857421875l5.8515625,0q-0.02734375-1.544921875-0.806640625-2.3857421875t-2.10546875-0.8408203125z M137.96083984375,117.0625q-3.69140625,0-5.76953125-2.037109375t-2.078125-5.76953125q0-3.841796875,1.9208984375-5.9404296875t5.3115234375-2.0986328125q3.240234375,0,5.044921875,1.845703125t1.8046875,5.099609375l0,2.0234375l-9.857421875,0q0.068359375,1.77734375,1.052734375,2.775390625t2.76171875,0.998046875q1.380859375,0,2.611328125-0.287109375t2.5703125-0.916015625l0,3.2265625q-1.09375,0.546875-2.337890625,0.8134765625t-3.03515625,0.2666015625z M167.52681640625,100.041015625q-2.392578125,0-3.705078125,1.7978515625t-1.3125,5.0107421875q0,6.685546875,5.017578125,6.685546875q2.10546875,0,5.099609375-1.052734375l0,3.5546875q-2.4609375,1.025390625-5.49609375,1.025390625q-4.361328125,0-6.671875-2.6455078125t-2.310546875-7.5947265625q0-3.1171875,1.134765625-5.4619140625t3.2607421875-3.595703125t4.9833984375-1.2509765625q2.912109375,0,5.8515625,1.408203125l-1.3671875,3.4453125q-1.12109375-0.533203125-2.255859375-0.9296875t-2.228515625-0.396484375z M188.181875,116.7890625l-0.806640625-2.078125l-0.109375,0q-1.052734375,1.326171875-2.1669921875,1.8388671875t-2.9052734375,0.5126953125q-2.201171875,0-3.4658203125-1.2578125t-1.2646484375-3.58203125q0-2.43359375,1.7021484375-3.5888671875t5.1337890625-1.2783203125l2.65234375-0.08203125l0-0.669921875q0-2.32421875-2.37890625-2.32421875q-1.83203125,0-4.306640625,1.107421875l-1.380859375-2.81640625q2.638671875-1.380859375,5.8515625-1.380859375q3.076171875,0,4.716796875,1.33984375t1.640625,4.07421875l0,10.185546875l-2.912109375,0z M186.95140625,109.70703125l-1.61328125,0.0546875q-1.818359375,0.0546875-2.70703125,0.65625t-0.888671875,1.83203125q0,1.763671875,2.0234375,1.763671875q1.44921875,0,2.3173828125-0.833984375t0.8681640625-2.21484375l0-1.2578125z M205.84279296875,101.216796875q0.84765625,0,1.408203125,0.123046875l-0.314453125,3.91015625q-0.505859375-0.13671875-1.23046875-0.13671875q-1.99609375,0-3.1103515625,1.025390625t-1.1142578125,2.87109375l0,7.779296875l-4.169921875,0l0-15.28515625l3.158203125,0l0.615234375,2.5703125l0.205078125,0q0.7109375-1.28515625,1.9208984375-2.0712890625t2.6318359375-0.7861328125z M225.71541015625,105.673828125l1.3671875,0q2.009765625,0,2.966796875-0.669921875t0.95703125-2.10546875q0-1.421875-0.9775390625-2.0234375t-3.0283203125-0.6015625l-1.28515625,0l0,5.400390625z M225.71541015625,109.119140625l0,7.669921875l-4.23828125,0l0-19.98828125l5.82421875,0q4.07421875,0,6.029296875,1.4833984375t1.955078125,4.5048828125q0,1.763671875-0.970703125,3.1376953125t-2.748046875,2.1533203125q4.51171875,6.740234375,5.87890625,8.708984375l-4.703125,0l-4.771484375-7.669921875l-2.255859375,0z M247.888046875,104.18359375q-1.326171875,0-2.078125,0.8408203125t-0.861328125,2.3857421875l5.8515625,0q-0.02734375-1.544921875-0.806640625-2.3857421875t-2.10546875-0.8408203125z M248.4759375,117.0625q-3.69140625,0-5.76953125-2.037109375t-2.078125-5.76953125q0-3.841796875,1.9208984375-5.9404296875t5.3115234375-2.0986328125q3.240234375,0,5.044921875,1.845703125t1.8046875,5.099609375l0,2.0234375l-9.857421875,0q0.068359375,1.77734375,1.052734375,2.775390625t2.76171875,0.998046875q1.380859375,0,2.611328125-0.287109375t2.5703125-0.916015625l0,3.2265625q-1.09375,0.546875-2.337890625,0.8134765625t-3.03515625,0.2666015625z M274.13490234375,116.7890625l-4.169921875,0l0-8.927734375q0-1.654296875-0.587890625-2.4814453125t-1.873046875-0.8271484375q-1.75,0-2.529296875,1.1689453125t-0.779296875,3.8759765625l0,7.19140625l-4.169921875,0l0-15.28515625l3.185546875,0l0.560546875,1.955078125l0.232421875,0q0.697265625-1.107421875,1.9208984375-1.6748046875t2.7822265625-0.5673828125q2.666015625,0,4.046875,1.4423828125t1.380859375,4.1630859375l0,9.966796875z M286.7919140625,113.740234375q1.09375,0,2.625-0.478515625l0,3.103515625q-1.55859375,0.697265625-3.828125,0.697265625q-2.501953125,0-3.6435546875-1.2646484375t-1.1416015625-3.7939453125l0-7.369140625l-1.99609375,0l0-1.763671875l2.296875-1.39453125l1.203125-3.2265625l2.666015625,0l0,3.25390625l4.279296875,0l0,3.130859375l-4.279296875,0l0,7.369140625q0,0.888671875,0.4990234375,1.3125t1.3193359375,0.423828125z M304.13837890625,116.7890625l-0.806640625-2.078125l-0.109375,0q-1.052734375,1.326171875-2.1669921875,1.8388671875t-2.9052734375,0.5126953125q-2.201171875,0-3.4658203125-1.2578125t-1.2646484375-3.58203125q0-2.43359375,1.7021484375-3.5888671875t5.1337890625-1.2783203125l2.65234375-0.08203125l0-0.669921875q0-2.32421875-2.37890625-2.32421875q-1.83203125,0-4.306640625,1.107421875l-1.380859375-2.81640625q2.638671875-1.380859375,5.8515625-1.380859375q3.076171875,0,4.716796875,1.33984375t1.640625,4.07421875l0,10.185546875l-2.912109375,0z M302.90791015625,109.70703125l-1.61328125,0.0546875q-1.818359375,0.0546875-2.70703125,0.65625t-0.888671875,1.83203125q0,1.763671875,2.0234375,1.763671875q1.44921875,0,2.3173828125-0.833984375t0.8681640625-2.21484375l0-1.2578125z M317.43796875,116.7890625l-4.169921875,0l0-21.2734375l4.169921875,0l0,21.2734375z"/><path fill="#" d=""/></svg>
